<svg width="20" height="20" viewBox="0 0 20 20" fill="none" xmlns="http://www.w3.org/2000/svg"><path fill-rule="evenodd" clip-rule="evenodd" d="M15.8779 1.90983C14.1694 0.668549 12.1118 0 10 0V2C11.6894 2 13.3355 2.53484 14.7023 3.52786C16.0691 4.52089 17.0864 5.92112 17.6085 7.52786C18.1305 9.13461 18.1305 10.8654 17.6085 12.4721L15 11.0001L15.8779 18.0902C17.5863 16.8489 18.858 15.0986 19.5106 13.0902C20.1631 11.0817 20.1631 8.91826 19.5106 6.90983C18.858 4.9014 17.5863 3.15111 15.8779 1.90983ZM4.12215 18.0903C5.83062 19.3316 7.88821 20.0002 10 20.0002V18.0002C8.31056 18.0002 6.6645 17.4653 5.29772 16.4723C3.93094 15.4793 2.91361 14.079 2.39155 12.4723C1.86948 10.8656 1.86948 9.13478 2.39155 7.52803L5.12215 8.90999L4.12215 1.90999C2.41367 3.15127 1.14201 4.90156 0.489435 6.90999C-0.163145 8.91843 -0.163145 11.0819 0.489435 13.0903C1.14201 15.0988 2.41367 16.8491 4.12215 18.0903Z" fill=${refresh}/></svg>
